<?xml version="1.0" encoding="UTF-8" standalone="no"?>
<!-- Created with Inkscape (http://www.inkscape.org/) -->

<svg
   xmlns:dc="http://purl.org/dc/elements/1.1/"
   xmlns:cc="http://creativecommons.org/ns#"
   xmlns:rdf="http://www.w3.org/1999/02/22-rdf-syntax-ns#"
   xmlns:svg="http://www.w3.org/2000/svg"
   xmlns="http://www.w3.org/2000/svg"
   xmlns:xlink="http://www.w3.org/1999/xlink"
   xmlns:sodipodi="http://sodipodi.sourceforge.net/DTD/sodipodi-0.dtd"
   xmlns:inkscape="http://www.inkscape.org/namespaces/inkscape"
   width="85.849998mm"
   height="54.230003mm"
   viewBox="0 0 85.849994 54.230003"
   version="1.1"
   id="svg2386"
   inkscape:version="0.92.4 5da689c313, 2019-01-14"
   sodipodi:docname="card-a4.svg"
   inkscape:export-filename="sim-card_template.png"
   inkscape:export-xdpi="299.84741"
   inkscape:export-ydpi="299.84741">
  <defs
     id="defs2380">
    <marker
       inkscape:stockid="Arrow1Lstart"
       orient="auto"
       refY="0"
       refX="0"
       id="marker23622"
       style="overflow:visible"
       inkscape:isstock="true">
      <path
         inkscape:connector-curvature="0"
         id="path23620"
         d="M 0,0 5,-5 -12.5,0 5,5 Z"
         style="fill:#000000;fill-opacity:1;fill-rule:evenodd;stroke:#000000;stroke-width:1.00000003pt;stroke-opacity:1"
         transform="matrix(0.8,0,0,0.8,10,0)" />
    </marker>
    <marker
       inkscape:isstock="true"
       style="overflow:visible"
       id="marker9108"
       refX="0"
       refY="0"
       orient="auto"
       inkscape:stockid="Arrow1Lend">
      <path
         transform="matrix(-0.8,0,0,-0.8,-10,0)"
         style="fill:#000000;fill-opacity:1;fill-rule:evenodd;stroke:#000000;stroke-width:1.00000003pt;stroke-opacity:1"
         d="M 0,0 5,-5 -12.5,0 5,5 Z"
         id="path9106"
         inkscape:connector-curvature="0" />
    </marker>
    <marker
       inkscape:isstock="true"
       style="overflow:visible"
       id="marker9020"
       refX="0"
       refY="0"
       orient="auto"
       inkscape:stockid="Arrow1Lstart">
      <path
         transform="matrix(0.8,0,0,0.8,10,0)"
         style="fill:#000000;fill-opacity:1;fill-rule:evenodd;stroke:#000000;stroke-width:1.00000003pt;stroke-opacity:1"
         d="M 0,0 5,-5 -12.5,0 5,5 Z"
         id="path9018"
         inkscape:connector-curvature="0" />
    </marker>
    <marker
       inkscape:isstock="true"
       style="overflow:visible"
       id="marker8816"
       refX="0"
       refY="0"
       orient="auto"
       inkscape:stockid="Arrow1Lend">
      <path
         transform="matrix(-0.8,0,0,-0.8,-10,0)"
         style="fill:#000000;fill-opacity:1;fill-rule:evenodd;stroke:#000000;stroke-width:1.00000003pt;stroke-opacity:1"
         d="M 0,0 5,-5 -12.5,0 5,5 Z"
         id="path8814"
         inkscape:connector-curvature="0" />
    </marker>
    <marker
       inkscape:isstock="true"
       style="overflow:visible"
       id="marker8740"
       refX="0"
       refY="0"
       orient="auto"
       inkscape:stockid="Arrow1Lstart">
      <path
         transform="matrix(0.8,0,0,0.8,10,0)"
         style="fill:#000000;fill-opacity:1;fill-rule:evenodd;stroke:#000000;stroke-width:1.00000003pt;stroke-opacity:1"
         d="M 0,0 5,-5 -12.5,0 5,5 Z"
         id="path8738"
         inkscape:connector-curvature="0" />
    </marker>
    <marker
       inkscape:isstock="true"
       style="overflow:visible"
       id="marker7857"
       refX="0"
       refY="0"
       orient="auto"
       inkscape:stockid="Arrow1Lstart">
      <path
         transform="matrix(0.8,0,0,0.8,10,0)"
         style="fill:#000000;fill-opacity:1;fill-rule:evenodd;stroke:#000000;stroke-width:1.00000003pt;stroke-opacity:1"
         d="M 0,0 5,-5 -12.5,0 5,5 Z"
         id="path7855"
         inkscape:connector-curvature="0" />
    </marker>
    <marker
       inkscape:stockid="Arrow1Lend"
       orient="auto"
       refY="0"
       refX="0"
       id="Arrow1Lend"
       style="overflow:visible"
       inkscape:isstock="true">
      <path
         id="path6663"
         d="M 0,0 5,-5 -12.5,0 5,5 Z"
         style="fill:#000000;fill-opacity:1;fill-rule:evenodd;stroke:#000000;stroke-width:1.00000003pt;stroke-opacity:1"
         transform="matrix(-0.8,0,0,-0.8,-10,0)"
         inkscape:connector-curvature="0" />
    </marker>
    <marker
       inkscape:stockid="Arrow1Lstart"
       orient="auto"
       refY="0"
       refX="0"
       id="Arrow1Lstart"
       style="overflow:visible"
       inkscape:isstock="true">
      <path
         id="path6660"
         d="M 0,0 5,-5 -12.5,0 5,5 Z"
         style="fill:#000000;fill-opacity:1;fill-rule:evenodd;stroke:#000000;stroke-width:1.00000003pt;stroke-opacity:1"
         transform="matrix(0.8,0,0,0.8,10,0)"
         inkscape:connector-curvature="0" />
    </marker>
    <marker
       inkscape:stockid="Arrow1Lstart"
       orient="auto"
       refY="0"
       refX="0"
       id="Arrow1Lstart-3"
       style="overflow:visible"
       inkscape:isstock="true"
       inkscape:collect="always">
      <path
         inkscape:connector-curvature="0"
         id="path6660-9"
         d="M 0,0 5,-5 -12.5,0 5,5 Z"
         style="fill:#000000;fill-opacity:1;fill-rule:evenodd;stroke:#000000;stroke-width:1.00000003pt;stroke-opacity:1"
         transform="matrix(0.8,0,0,0.8,10,0)" />
    </marker>
    <marker
       inkscape:stockid="Arrow1Lend"
       orient="auto"
       refY="0"
       refX="0"
       id="Arrow1Lend-0"
       style="overflow:visible"
       inkscape:isstock="true">
      <path
         inkscape:connector-curvature="0"
         id="path6663-8"
         d="M 0,0 5,-5 -12.5,0 5,5 Z"
         style="fill:#000000;fill-opacity:1;fill-rule:evenodd;stroke:#000000;stroke-width:1.00000003pt;stroke-opacity:1"
         transform="matrix(-0.8,0,0,-0.8,-10,0)" />
    </marker>
    <marker
       inkscape:isstock="true"
       style="overflow:visible"
       id="marker8740-3"
       refX="0"
       refY="0"
       orient="auto"
       inkscape:stockid="Arrow1Lstart">
      <path
         transform="matrix(0.8,0,0,0.8,10,0)"
         style="fill:#000000;fill-opacity:1;fill-rule:evenodd;stroke:#000000;stroke-width:1.00000003pt;stroke-opacity:1"
         d="M 0,0 5,-5 -12.5,0 5,5 Z"
         id="path8738-1"
         inkscape:connector-curvature="0" />
    </marker>
    <marker
       inkscape:isstock="true"
       style="overflow:visible"
       id="marker8816-7"
       refX="0"
       refY="0"
       orient="auto"
       inkscape:stockid="Arrow1Lend">
      <path
         transform="matrix(-0.8,0,0,-0.8,-10,0)"
         style="fill:#000000;fill-opacity:1;fill-rule:evenodd;stroke:#000000;stroke-width:1.00000003pt;stroke-opacity:1"
         d="M 0,0 5,-5 -12.5,0 5,5 Z"
         id="path8814-5"
         inkscape:connector-curvature="0" />
    </marker>
    <marker
       inkscape:stockid="Arrow1Lstart"
       orient="auto"
       refY="0"
       refX="0"
       id="marker23622-9"
       style="overflow:visible"
       inkscape:isstock="true">
      <path
         inkscape:connector-curvature="0"
         id="path23620-6"
         d="M 0,0 5,-5 -12.5,0 5,5 Z"
         style="fill:#000000;fill-opacity:1;fill-rule:evenodd;stroke:#000000;stroke-width:1.00000003pt;stroke-opacity:1"
         transform="matrix(0.8,0,0,0.8,10,0)" />
    </marker>
    <marker
       inkscape:isstock="true"
       style="overflow:visible"
       id="marker9020-9"
       refX="0"
       refY="0"
       orient="auto"
       inkscape:stockid="Arrow1Lstart">
      <path
         transform="matrix(0.8,0,0,0.8,10,0)"
         style="fill:#000000;fill-opacity:1;fill-rule:evenodd;stroke:#000000;stroke-width:1.00000003pt;stroke-opacity:1"
         d="M 0,0 5,-5 -12.5,0 5,5 Z"
         id="path9018-7"
         inkscape:connector-curvature="0" />
    </marker>
    <marker
       inkscape:isstock="true"
       style="overflow:visible"
       id="marker9108-5"
       refX="0"
       refY="0"
       orient="auto"
       inkscape:stockid="Arrow1Lend">
      <path
         transform="matrix(-0.8,0,0,-0.8,-10,0)"
         style="fill:#000000;fill-opacity:1;fill-rule:evenodd;stroke:#000000;stroke-width:1.00000003pt;stroke-opacity:1"
         d="M 0,0 5,-5 -12.5,0 5,5 Z"
         id="path9106-3"
         inkscape:connector-curvature="0" />
    </marker>
    <marker
       inkscape:isstock="true"
       style="overflow:visible"
       id="marker8740-6"
       refX="0"
       refY="0"
       orient="auto"
       inkscape:stockid="Arrow1Lstart">
      <path
         transform="matrix(0.8,0,0,0.8,10,0)"
         style="fill:#000000;fill-opacity:1;fill-rule:evenodd;stroke:#000000;stroke-width:1.00000003pt;stroke-opacity:1"
         d="M 0,0 5,-5 -12.5,0 5,5 Z"
         id="path8738-4"
         inkscape:connector-curvature="0" />
    </marker>
    <marker
       inkscape:isstock="true"
       style="overflow:visible"
       id="marker8816-3"
       refX="0"
       refY="0"
       orient="auto"
       inkscape:stockid="Arrow1Lend">
      <path
         transform="matrix(-0.8,0,0,-0.8,-10,0)"
         style="fill:#000000;fill-opacity:1;fill-rule:evenodd;stroke:#000000;stroke-width:1.00000003pt;stroke-opacity:1"
         d="M 0,0 5,-5 -12.5,0 5,5 Z"
         id="path8814-3"
         inkscape:connector-curvature="0" />
    </marker>
    <marker
       inkscape:stockid="Arrow1Lstart"
       orient="auto"
       refY="0"
       refX="0"
       id="marker23622-3"
       style="overflow:visible"
       inkscape:isstock="true">
      <path
         inkscape:connector-curvature="0"
         id="path23620-8"
         d="M 0,0 5,-5 -12.5,0 5,5 Z"
         style="fill:#000000;fill-opacity:1;fill-rule:evenodd;stroke:#000000;stroke-width:1.00000003pt;stroke-opacity:1"
         transform="matrix(0.8,0,0,0.8,10,0)" />
    </marker>
    <marker
       inkscape:isstock="true"
       style="overflow:visible"
       id="marker9020-3"
       refX="0"
       refY="0"
       orient="auto"
       inkscape:stockid="Arrow1Lstart">
      <path
         transform="matrix(0.8,0,0,0.8,10,0)"
         style="fill:#000000;fill-opacity:1;fill-rule:evenodd;stroke:#000000;stroke-width:1.00000003pt;stroke-opacity:1"
         d="M 0,0 5,-5 -12.5,0 5,5 Z"
         id="path9018-0"
         inkscape:connector-curvature="0" />
    </marker>
    <marker
       inkscape:isstock="true"
       style="overflow:visible"
       id="marker9108-3"
       refX="0"
       refY="0"
       orient="auto"
       inkscape:stockid="Arrow1Lend">
      <path
         transform="matrix(-0.8,0,0,-0.8,-10,0)"
         style="fill:#000000;fill-opacity:1;fill-rule:evenodd;stroke:#000000;stroke-width:1.00000003pt;stroke-opacity:1"
         d="M 0,0 5,-5 -12.5,0 5,5 Z"
         id="path9106-0"
         inkscape:connector-curvature="0" />
    </marker>
    <rect
       id="SVGID_4_"
       x="3.6900001"
       y="2.3900001"
       width="231.78"
       height="159.39" />
    <path
       d="m 149.29,115.71 -3.93,6.62 -4.04,-6.62 h -3.43 v 5.88 h -4.39 c -0.17,-0.63 -0.73,-1.11 -1.42,-1.11 -0.69,0 -1.25,0.47 -1.42,1.11 h -2.37 v -2.72 h 5.96 v -3.16 h -10.07 v 12.43 h 10.3 v -3.16 h -6.19 v -2.66 h 2.36 c 0.16,0.66 0.72,1.16 1.43,1.16 0.71,0 1.27,-0.5 1.43,-1.16 h 4.38 v 5.82 h 3.81 v -5.47 l 2.69,4.35 h 1.84 l 2.69,-4.55 0.04,5.66 h 3.8 l -0.03,-12.43 h -3.44 z m 27.07,3.23 h 1.52 c 0.57,0 0.99,0.13 1.27,0.38 0.28,0.25 0.42,0.61 0.42,1.07 0,0.46 -0.14,0.82 -0.42,1.08 -0.28,0.26 -0.71,0.38 -1.27,0.38 h -1.52 z m -4.18,-3.23 v 12.43 h 4.18 v -3.13 h 1.13 l 2.11,3.13 h 4.46 l -2.6,-3.83 c 0.76,-0.39 1.33,-0.92 1.73,-1.58 0.4,-0.66 0.6,-1.44 0.6,-2.33 0,-0.94 -0.23,-1.77 -0.69,-2.48 -0.46,-0.71 -1.11,-1.26 -1.96,-1.64 -0.85,-0.38 -1.85,-0.57 -2.99,-0.57 z m 22.98,0 v 12.43 h 10.3 v -3.16 h -6.19 v -1.63 h 5.24 v -3.02 h -5.24 v -1.46 h 5.96 v -3.16 z m -96.15,1.21 c 0,0.83 0.67,1.5 1.5,1.5 0.69,0 1.25,-0.47 1.42,-1.11 h 3.58 v 8.9 h -3.57 c -0.17,-0.64 -0.73,-1.13 -1.43,-1.13 -0.83,0 -1.5,0.67 -1.5,1.5 0,0.83 0.67,1.5 1.5,1.5 0.7,0 1.26,-0.49 1.43,-1.14 h 3.57 v 1.2 h 3.81 v -5.47 l 2.69,4.35 h 1.84 l 2.69,-4.55 0.04,5.66 h 3.81 l -0.04,-12.43 h -3.43 l -3.93,6.62 -4.03,-6.62 h -3.43 v 0.88 h -3.57 c -0.15,-0.66 -0.72,-1.16 -1.43,-1.16 -0.85,0.01 -1.52,0.68 -1.52,1.5 M 211,115.98 c -0.87,0.37 -1.52,0.87 -1.95,1.51 -0.44,0.64 -0.66,1.35 -0.66,2.13 0,0.9 0.24,1.61 0.71,2.14 0.47,0.53 1.03,0.9 1.66,1.14 0.64,0.23 1.43,0.44 2.39,0.65 0.74,0.15 1.28,0.3 1.6,0.43 0.33,0.13 0.49,0.32 0.49,0.59 0,0.22 -0.12,0.39 -0.37,0.5 -0.25,0.11 -0.66,0.12 -1.24,0.17 -1.35,0.12 -4.08,-0.17 -4.8,-0.27 v 3.17 c 0.91,0.19 3.74,0.29 4.76,0.29 1.24,0 2.29,-0.19 3.16,-0.56 0.87,-0.37 1.52,-0.88 1.96,-1.51 0.44,-0.63 0.65,-1.34 0.65,-2.12 0,-0.9 -0.24,-1.61 -0.72,-2.13 -0.48,-0.52 -1.04,-0.9 -1.69,-1.13 -0.65,-0.23 -1.45,-0.44 -2.39,-0.61 -0.73,-0.14 -1.26,-0.28 -1.57,-0.4 -0.32,-0.12 -0.48,-0.31 -0.48,-0.56 0,-0.52 0.54,-0.78 1.61,-0.78 1.09,0 2.8,-0.06 4.77,0.23 v -3.17 c 0,0 -3.88,-0.26 -4.73,-0.26 -1.24,0 -2.3,0.18 -3.16,0.55 m -23.31,-4.28 c 0,-0.83 0.67,-1.5 1.5,-1.5 0.83,0 1.5,0.67 1.5,1.5 0,0.83 -0.67,1.5 -1.5,1.5 -0.83,0 -1.5,-0.67 -1.5,-1.5 m -0.7,0 c 0,1.09 0.79,1.98 1.83,2.16 v 1.86 h -1.66 v 12.43 h 4.18 v -12.43 h -1.79 v -1.86 c 1.04,-0.17 1.83,-1.07 1.83,-2.16 0,-1.21 -0.98,-2.19 -2.19,-2.19 -1.21,0 -2.2,0.98 -2.2,2.19 M 127.98,98.76 c 0,-0.83 0.67,-1.5 1.5,-1.5 0.83,0 1.5,0.67 1.5,1.5 0,0.83 -0.67,1.5 -1.5,1.5 -0.83,-0.01 -1.5,-0.68 -1.5,-1.5 m 29.79,-11.67 c 0,-0.83 0.67,-1.5 1.5,-1.5 0.83,0 1.5,0.67 1.5,1.5 0,0.83 -0.67,1.5 -1.5,1.5 -0.83,-0.01 -1.5,-0.68 -1.5,-1.5 m 3.69,0 c 0,-0.36 -0.1,-0.7 -0.25,-1 l 9.13,-6.22 V 98.4 H 148.95 V 87.47 h 8.16 c 0.18,1.03 1.07,1.81 2.15,1.81 1.22,0 2.2,-0.98 2.2,-2.19 m -4.43,-18.3 c 0,-0.88 0.03,-1.72 0.08,-2.55 h 13.23 v 12.74 l -9.56,6.51 c -0.39,-0.38 -0.92,-0.61 -1.51,-0.61 -1.09,0 -1.99,0.8 -2.16,1.85 h -8.16 c 0,0 0.01,-3.72 0.01,-4.35 0,-1.93 -1.57,-3.5 -3.5,-3.5 -1.93,0 -3.5,1.57 -3.5,3.5 0,0.04 -0.01,1.41 -0.01,1.9 H 131.1 c 0.3,0.83 0.53,1.73 0.67,2.71 0.16,1.08 0.26,2.4 0.33,3.91 h 9.85 v 5.49 c 0,0.72 0,2.01 0,2.01 h -10.32 c -0.17,-1.04 -1.07,-1.83 -2.16,-1.83 -1.09,0 -1.99,0.79 -2.16,1.83 h -8.52 c 0,-0.01 0,-5.39 0,-5.39 0,-5.45 -1.3,-7.32 -4.82,-8.07 -0.6,-0.13 -1.89,-0.12 -1.89,-0.12 v -5.56 h 14.78 c 1.39,0.81 2.45,1.78 3.19,2.89 0.04,0.06 0.06,0.13 0.09,0.19 v -6.77 c -0.82,1.29 -1.81,2.29 -3.31,2.97 h -14.74 v -5.3 c 2.31,0 3.83,-0.51 4.99,-1.54 1.15,-1.03 1.74,-2.67 1.73,-4.93 0,-0.5 -0.01,-0.52 -0.01,-0.52 h 8.49 c 0.18,1.03 1.07,1.83 2.16,1.83 1.09,0 1.98,-0.79 2.16,-1.83 h 10.36 v 4.88 c 0.65,-0.85 1.53,-1.55 2.63,-2.11 1.1,-0.55 2.36,-0.83 3.76,-0.83 3.7,0 6.58,0.91 8.68,2.69 v -2.09 z m -29.09,-2.91 c 0,-0.83 0.67,-1.5 1.5,-1.5 0.83,0 1.5,0.67 1.5,1.5 0,0.83 -0.67,1.5 -1.5,1.5 -0.83,0 -1.5,-0.67 -1.5,-1.5 m 71.63,-1.25 c 0,0.38 0.02,2.5 -0.02,2.88 v 1.96 h -10.32 v 6.24 h -12.86 v -9.55 c 0,-0.43 -0.02,-1.62 -0.02,-1.89 0,-1.66 -1.34,-3 -3,-3 -1.66,0 -3,1.34 -3,3 0,0.26 0.03,1.06 0.02,1.25 h -13.2 c 0.1,-1.23 0.25,-2.4 0.46,-3.5 h -15.66 v 3.5 H 131.6 c -0.17,-1.04 -1.07,-1.83 -2.16,-1.83 -1.09,0 -1.99,0.79 -2.16,1.83 h -8.49 v -0.89 c 0,-1.85 -1.5,-3.35 -3.36,-3.35 -1.85,0 -3.36,1.5 -3.36,3.35 0,0.35 0.02,4.24 0.02,4.24 H 98.99 V 90 h 13.08 v 9.6 c 0,1.85 1.5,3.36 3.36,3.36 1.85,0 3.36,-1.5 3.36,-3.36 v -0.47 h 8.52 c 0.18,1.04 1.07,1.83 2.16,1.83 1.09,0 1.98,-0.79 2.16,-1.83 h 10.32 v 0.33 c 0,1.93 1.57,3.5 3.5,3.5 1.93,0 3.5,-1.57 3.5,-3.5 0,-0.1 -0.02,-0.2 -0.03,-0.3 0,-0.01 0.01,-0.02 0.01,-0.02 h 21.41 c 0,0 0,0.59 0,0.83 0,1.66 1.34,3 3,3 1.66,0 3,-1.34 3,-3 0,-0.14 0.02,-1.11 0.02,-1.53 V 86.76 h 12.86 v 3.83 h 10.35 v 6.77 2.23 c 0,1.85 1.49,3.36 3.32,3.36 1.83,0 3.32,-1.5 3.32,-3.36 0,-0.24 0.01,-2.86 0.01,-4.34 v -1.58 c 0,-5.57 -1.45,-7.46 -3.99,-8.13 -0.79,-0.21 -2.66,-0.15 -2.66,-0.15 v -5.64 h 14.87 c 1.46,0.83 2.42,1.82 3.18,2.98 0.74,1.11 1.21,2.47 1.52,3.99 v -14.4 c -0.22,1.08 -0.5,2.07 -0.88,2.9 -0.78,1.72 -2.06,2.99 -3.82,3.82 h -14.87 v -5.21 c 2.31,0 3.92,-0.51 5.07,-1.54 1.15,-1.03 1.57,-2.69 1.57,-4.95 v -2.71 c 0,-1.85 -1.49,-3.35 -3.32,-3.35 -1.83,0 -3.32,1.5 -3.32,3.35 M 112.08,36.72 v 12.39 h 10.31 v -3.15 h -6.2 v -1.63 h 5.24 v -3.01 h -5.24 v -1.45 h 5.97 v -3.15 z m 11.92,0 v 12.39 h 4.18 v -5.9 h 2.23 c 0.16,0.66 0.72,1.16 1.43,1.16 0.83,0 1.5,-0.67 1.5,-1.5 0,-0.83 -0.67,-1.5 -1.5,-1.5 -0.69,0 -1.24,0.47 -1.42,1.11 h -2.24 v -2.61 h 5.9 v -3.15 z m 15.59,3.22 h 1.52 c 0.57,0 0.99,0.13 1.28,0.38 0.28,0.25 0.43,0.61 0.43,1.07 0,0.46 -0.14,0.82 -0.43,1.07 -0.28,0.25 -0.71,0.38 -1.28,0.38 h -1.52 z m -4.18,-3.22 v 12.39 h 4.18 V 46 h 1.13 l 2.11,3.11 h 4.46 l -2.6,-3.82 c 0.76,-0.39 1.33,-0.91 1.74,-1.57 0.4,-0.66 0.6,-1.43 0.6,-2.32 0,-0.94 -0.23,-1.77 -0.69,-2.48 -0.46,-0.71 -1.12,-1.25 -1.97,-1.63 -0.85,-0.38 -1.85,-0.57 -2.99,-0.57 z m 13.19,0 v 12.39 h 10.31 v -3.15 h -6.2 v -1.63 h 5.24 v -3.01 h -5.24 v -1.45 h 5.97 v -3.15 z m 31.6,0 v 4.39 h -3.86 v -4.39 h -4.18 v 12.39 h 4.18 v -4.57 h 3.86 v 4.57 h 4.18 V 36.72 Z m 20.54,0 v 5.63 l -4.71,-5.63 h -3.44 v 12.39 h 4.07 v -5.63 l 4.71,5.63 h 3.44 V 36.72 Z m -38.19,0.26 c -0.87,0.37 -1.52,0.87 -1.96,1.5 -0.44,0.64 -0.65,1.35 -0.65,2.13 0,0.9 0.24,1.61 0.71,2.13 0.47,0.53 1.03,0.9 1.66,1.13 0.64,0.23 1.43,0.45 2.39,0.65 0.74,0.15 1.28,0.29 1.6,0.42 0.32,0.13 0.49,0.33 0.49,0.58 0,0.22 -0.12,0.39 -0.37,0.51 -0.25,0.11 -0.66,0.12 -1.24,0.17 -1.35,0.12 -4.08,-0.17 -4.8,-0.27 v 3.16 c 0.91,0.19 3.74,0.29 4.77,0.29 1.24,0 2.29,-0.19 3.16,-0.56 0.87,-0.37 1.52,-0.87 1.96,-1.5 0.44,-0.63 0.65,-1.34 0.65,-2.12 0,-0.9 -0.24,-1.6 -0.72,-2.12 -0.48,-0.52 -1.04,-0.9 -1.69,-1.13 -0.65,-0.23 -1.45,-0.43 -2.39,-0.61 -0.73,-0.14 -1.26,-0.27 -1.58,-0.4 -0.32,-0.13 -0.48,-0.31 -0.48,-0.56 0,-0.52 0.54,-0.78 1.61,-0.78 1.09,0 2.8,-0.05 4.77,0.23 v -3.16 c 0,0 -3.88,-0.26 -4.73,-0.26 -1.24,0.03 -2.3,0.21 -3.16,0.57 m 50.8,-0.54 c -1.34,0.08 -2.55,0.27 -3.62,0.82 -1.07,0.55 -1.9,1.32 -2.5,2.3 -0.6,0.99 -0.9,2.1 -0.9,3.35 0,1.25 0.3,2.37 0.9,3.35 0.6,0.99 1.42,1.75 2.47,2.3 1.05,0.55 2.24,0.82 3.56,0.82 0.93,0 1.88,-0.14 2.85,-0.41 0.97,-0.27 1.82,-0.66 2.55,-1.17 v -5.24 h -3.63 v 3.13 c -0.48,0.2 -0.99,0.3 -1.52,0.3 -0.9,0 -1.62,-0.28 -2.15,-0.85 -0.54,-0.57 -0.81,-1.32 -0.81,-2.25 0,-0.96 0.27,-1.71 0.81,-2.27 0.54,-0.55 1.28,-0.83 2.2,-0.83 1.07,0 5.09,0.05 5.09,0.05 v -3.16 c 0,0 -1.56,-0.32 -3.84,-0.32 -0.46,0.03 -0.95,0.05 -1.46,0.08 m -26.38,-3.72 c 0,-0.83 0.67,-1.5 1.5,-1.5 0.83,0 1.5,0.67 1.5,1.5 0,0.83 -0.67,1.5 -1.5,1.5 -0.83,0 -1.5,-0.68 -1.5,-1.5 m -0.7,0 c 0,1.09 0.79,1.98 1.83,2.16 v 1.85 h -1.71 v 12.39 h 4.18 v -12.4 h -1.74 v -1.85 c 1.04,-0.17 1.83,-1.07 1.83,-2.16 0,-1.21 -0.98,-2.19 -2.19,-2.19 -1.21,0 -2.2,0.99 -2.2,2.2 M 29.52,133.65 c 0,-0.9 0.73,-1.63 1.62,-1.63 0.89,0 1.62,0.73 1.62,1.63 0,0.9 -0.73,1.62 -1.62,1.62 -0.9,0.01 -1.62,-0.72 -1.62,-1.62 m 13.03,0 c 0,-0.9 0.73,-1.63 1.62,-1.63 0.9,0 1.62,0.73 1.62,1.63 0,0.9 -0.73,1.62 -1.62,1.62 -0.89,0.01 -1.62,-0.72 -1.62,-1.62 m -13.16,-6.94 c 0,-0.89 0.73,-1.63 1.62,-1.63 0.9,0 1.62,0.73 1.62,1.63 0,0.9 -0.73,1.62 -1.62,1.62 -0.9,0 -1.62,-0.73 -1.62,-1.62 m 13.16,0 c 0,-0.89 0.73,-1.63 1.62,-1.63 0.9,0 1.62,0.73 1.62,1.63 0,0.9 -0.73,1.62 -1.62,1.62 -0.89,0 -1.62,-0.73 -1.62,-1.62 m 118.52,-2.06 c -0.42,-0.25 -0.75,-0.62 -1,-1.09 -0.25,-0.47 -0.37,-1.01 -0.37,-1.64 0,-0.63 0.12,-1.17 0.37,-1.64 0.25,-0.47 0.58,-0.83 1,-1.08 0.42,-0.25 0.89,-0.38 1.41,-0.38 0.52,0 0.99,0.13 1.41,0.38 0.42,0.25 0.75,0.61 1,1.08 0.25,0.47 0.37,1.02 0.37,1.64 0,0.63 -0.12,1.18 -0.37,1.64 -0.25,0.47 -0.58,0.83 -1,1.09 -0.42,0.25 -0.89,0.38 -1.41,0.38 -0.53,0 -1,-0.12 -1.41,-0.38 M 80.6,111.23 c 0,-0.9 0.73,-1.62 1.62,-1.62 0.9,0 1.62,0.73 1.62,1.62 0,0.9 -0.73,1.62 -1.62,1.62 -0.9,0 -1.62,-0.72 -1.62,-1.62 M 31.64,94.08 h 12.11 l -6.06,7.88 z m 6.49,8.45 6.5,-8.45 h 37.21 v 14.9 c -0.96,0.16 -1.69,0.89 -1.87,1.83 l -34.31,-0.03 c -0.15,-0.82 -0.84,-1.46 -1.7,-1.46 -0.19,0 -0.36,0.05 -0.53,0.11 z M 13.25,48.02 H 85.54 V 93.38 H 13.25 Z m 89.82,-8.08 h 1.52 c 0.57,0 0.99,0.13 1.28,0.38 0.28,0.25 0.42,0.61 0.42,1.07 0,0.46 -0.14,0.82 -0.42,1.07 -0.28,0.25 -0.71,0.38 -1.28,0.38 h -1.52 z M 25.23,26.73 c 0,-0.9 0.73,-1.62 1.62,-1.62 0.9,0 1.62,0.73 1.62,1.62 0,0.9 -0.73,1.62 -1.62,1.62 -0.89,0 -1.62,-0.73 -1.62,-1.62 m 1.97,-2.26 v -4.01 h 6.49 v 2.41 l -3.5,3.49 H 29.11 C 28.95,25.39 28.19,24.63 27.2,24.47 m 0,-14.2 c 0.99,-0.15 1.76,-0.92 1.92,-1.9 h 1.07 l 3.5,3.49 v 2.76 H 27.2 Z M 40.86,15.32 50.08,8.44 231.5,8.31 v 7.83 h -75.1 v -1.32 h -0.7 v 3.35 h 0.7 v -1.32 h 75.1 v 122.68 l -10.09,8.54 h -57.28 c -0.16,-0.68 -0.7,-1.21 -1.41,-1.32 v -18.33 c 1.23,-0.03 2.35,-0.3 3.34,-0.82 1.06,-0.56 1.89,-1.33 2.5,-2.32 0.6,-0.99 0.9,-2.1 0.9,-3.35 0,-1.24 -0.3,-2.36 -0.9,-3.35 -0.6,-0.99 -1.43,-1.76 -2.5,-2.32 -1.06,-0.56 -2.26,-0.83 -3.59,-0.83 -1.33,0 -2.53,0.28 -3.59,0.83 -1.06,0.56 -1.89,1.33 -2.5,2.32 -0.6,0.99 -0.9,2.1 -0.9,3.35 0,1.24 0.3,2.36 0.9,3.35 0.6,0.99 1.43,1.76 2.5,2.32 0.94,0.49 1.99,0.75 3.15,0.81 v 18.37 c -0.64,0.16 -1.13,0.66 -1.28,1.3 H 82.49 l 0.05,-12.41 -1.63,-1.19 3.82,-1.96 -3.77,-2.22 3.74,-2.03 -3.82,-2.37 1.66,-1.22 v -11.19 c 1.12,-0.16 2,-1.09 2,-2.26 0,-1.17 -0.88,-2.09 -2,-2.26 V 94.08 h 3.7 V 47.32 H 58.86 V 33.18 l -18,-13.42 H 26.5 v 4.71 c -0.98,0.16 -1.73,0.92 -1.9,1.89 H 20.58 C 20.5,26 20.33,25.66 20.06,25.42 l 4.21,-6.83 h 27.51 l 47.1,18.51 v 12 h 4.18 v -3.11 h 1.13 l 2.11,3.11 h 4.46 l -2.6,-3.82 c 0.76,-0.39 1.33,-0.91 1.74,-1.57 0.4,-0.66 0.6,-1.43 0.6,-2.32 0,-0.94 -0.23,-1.77 -0.69,-2.48 -0.46,-0.71 -1.12,-1.25 -1.97,-1.63 -0.85,-0.38 -1.85,-0.57 -2.99,-0.57 H 99.81 L 51.98,17.91 23.88,17.88 19.45,25.06 C 19.27,25 19.09,24.95 18.89,24.95 c -0.85,0 -1.52,0.61 -1.69,1.4 h -5.09 l -3.5,-3.49 v -11 l 3.5,-3.49 h 5.2 c 0.17,0.8 0.84,1.41 1.69,1.41 0.16,0 0.29,-0.05 0.44,-0.09 l 4.44,7.15 h 82.15 l 1.62,2.25 2.28,-3.69 2.05,3.77 2.2,-3.74 1.9,3.7 1.65,-2.29 h 31.44 v 1.32 h 0.7 v -3.35 h -0.7 v 1.32 h -31.8 l -1.19,1.65 -1.96,-3.81 -2.22,3.77 -2.03,-3.74 -2.36,3.82 -1.22,-1.69 H 24.26 l -4.2,-6.76 c 0.32,-0.25 0.56,-0.6 0.65,-1.01 h 3.87 c 0.16,0.98 0.92,1.74 1.9,1.9 v 5.05 H 40.86 Z M 25.23,8.02 c 0,-0.9 0.73,-1.63 1.62,-1.63 0.9,0 1.62,0.73 1.62,1.63 0,0.9 -0.73,1.62 -1.62,1.62 -0.89,0 -1.62,-0.72 -1.62,-1.62 M 24.61,7.67 h -3.9 c -0.17,-0.8 -0.84,-1.41 -1.69,-1.41 -0.85,0 -1.52,0.61 -1.69,1.41 h -5.49 l -3.91,3.9 v 11.59 l 3.91,3.9 h 5.38 c 0.16,0.81 0.84,1.42 1.69,1.42 0.85,0 1.53,-0.62 1.69,-1.42 h 4.01 c 0.17,1.11 1.09,1.99 2.26,1.99 1.16,0 2.08,-0.87 2.26,-1.99 h 1.37 l 3.91,-3.9 v -2.7 h 6.23 L 58.18,33.53 V 47.32 H 12.55 v 46.76 h 18.21 l 6.48,8.45 -5.39,7.01 c -0.24,-0.13 -0.5,-0.21 -0.8,-0.21 -0.86,0 -1.55,0.64 -1.7,1.46 H 21.3 l -12.13,10.43 0.46,0.53 11.93,-10.27 h 7.82 c 0.15,0.64 0.64,1.13 1.29,1.29 v 11.68 c -1.11,0.18 -1.97,1.1 -1.97,2.25 0,1.28 1.04,2.32 2.32,2.32 1.28,0 2.32,-1.04 2.32,-2.32 0,-1.16 -0.87,-2.08 -1.97,-2.25 v -11.66 c 0.82,-0.15 1.46,-0.83 1.46,-1.7 0,-0.43 -0.17,-0.8 -0.42,-1.11 l 5.29,-6.88 5.12,6.67 c -0.37,0.32 -0.61,0.78 -0.61,1.31 0,0.93 0.72,1.66 1.63,1.74 v 11.62 c -1.11,0.18 -1.97,1.1 -1.97,2.25 0,1.28 1.04,2.32 2.32,2.32 1.28,0 2.32,-1.04 2.32,-2.32 0,-1.16 -0.86,-2.08 -1.97,-2.25 v -11.71 c 0.56,-0.19 0.97,-0.66 1.12,-1.25 l 34.31,0.04 c 0.14,1 0.9,1.78 1.89,1.95 v 10.84 l -2.22,1.62 3.68,2.28 -3.77,2.05 3.74,2.2 -3.69,1.9 2.25,1.65 -0.05,12.05 H 45.95 c -0.13,-0.73 -0.69,-1.28 -1.42,-1.41 V 135.9 c 1.11,-0.17 1.97,-1.1 1.97,-2.25 0,-1.28 -1.04,-2.32 -2.32,-2.32 -1.28,0 -2.32,1.04 -2.32,2.32 0,1.16 0.87,2.08 1.97,2.25 v 10.79 c -0.67,0.17 -1.17,0.7 -1.29,1.38 h -9.75 c -0.13,-0.73 -0.69,-1.28 -1.42,-1.41 v -10.73 c 1.17,-0.12 2.1,-1.08 2.1,-2.28 0,-1.28 -1.04,-2.32 -2.32,-2.32 -1.28,0 -2.32,1.04 -2.32,2.32 0,1.14 0.84,2.04 1.92,2.24 h -0.07 v 10.8 c -0.67,0.17 -1.17,0.7 -1.29,1.38 h -8.08 l -11.43,-9.75 -0.45,0.53 11.52,9.83 0.1,0.08 h 8.37 c 0.18,0.77 0.85,1.36 1.68,1.36 0.83,0 1.49,-0.59 1.68,-1.36 h 9.8 c 0.19,0.77 0.85,1.36 1.68,1.36 0.83,0 1.49,-0.59 1.68,-1.36 h 36.22 0.35 78.26 c 0.15,0.79 0.8,1.4 1.62,1.44 h 0.16 c 0.82,-0.04 1.47,-0.65 1.62,-1.44 h 57.53 l 10.41,-8.81 0.12,-0.11 V 7.61 L 49.96,7.74 h -0.12 l -9.22,6.88 H 34.39 V 11.57 L 30.48,7.67 H 29.11 C 28.93,6.56 28.02,5.7 26.86,5.7 25.7,5.7 24.78,6.56 24.61,7.67"
       id="SVGID_1_-8"
       inkscape:connector-curvature="0" />
    <linearGradient
       id="SVGID_5_"
       gradientUnits="userSpaceOnUse"
       x1="0.0352"
       y1="156.3481"
       x2="1.0352"
       y2="156.3481"
       gradientTransform="matrix(224.2875,0,0,-224.2875,-175.56428,35468.314)">
      <stop
         offset="0"
         style="stop-color:#0084B0"
         id="stop21" />
      <stop
         offset="1"
         style="stop-color:#00A356"
         id="stop23" />
    </linearGradient>
    <linearGradient
       gradientTransform="matrix(62.119,0,0,-62.119,147.8358,9728.7354)"
       y2="155.4787"
       x2="1.2043"
       y1="155.4787"
       x1="0.2043"
       gradientUnits="userSpaceOnUse"
       id="SVGID_8_">
      <stop
         id="stop64"
         style="stop-color:#0084B0"
         offset="0" />
      <stop
         id="stop66"
         style="stop-color:#00A356"
         offset="1" />
    </linearGradient>
    <clipPath
       id="SVGID_7_">
      <use
         id="use61"
         style="overflow:visible"
         xlink:href="#SVGID_6_"
         x="0"
         y="0"
         width="100%"
         height="100%" />
    </clipPath>
    <clipPath
       id="SVGID_7_-1">
      <use
         id="use61-3"
         style="overflow:visible"
         xlink:href="#SVGID_6_"
         x="0"
         y="0"
         width="100%"
         height="100%" />
    </clipPath>
    <clipPath
       id="SVGID_7_-3">
      <use
         id="use61-4"
         style="overflow:visible"
         xlink:href="#SVGID_6_"
         x="0"
         y="0"
         width="100%"
         height="100%" />
    </clipPath>
    <marker
       inkscape:stockid="Arrow1Lend"
       orient="auto"
       refY="0"
       refX="0"
       id="Arrow1Lend-0-7"
       style="overflow:visible"
       inkscape:isstock="true">
      <path
         inkscape:connector-curvature="0"
         id="path6663-8-5"
         d="M 0,0 5,-5 -12.5,0 5,5 Z"
         style="fill:#000000;fill-opacity:1;fill-rule:evenodd;stroke:#000000;stroke-width:1.00000003pt;stroke-opacity:1"
         transform="matrix(-0.8,0,0,-0.8,-10,0)" />
    </marker>
    <marker
       inkscape:isstock="true"
       style="overflow:visible"
       id="marker7857-3"
       refX="0"
       refY="0"
       orient="auto"
       inkscape:stockid="Arrow1Lstart">
      <path
         transform="matrix(0.8,0,0,0.8,10,0)"
         style="fill:#000000;fill-opacity:1;fill-rule:evenodd;stroke:#000000;stroke-width:1.00000003pt;stroke-opacity:1"
         d="M 0,0 5,-5 -12.5,0 5,5 Z"
         id="path7855-5"
         inkscape:connector-curvature="0" />
    </marker>
    <marker
       inkscape:stockid="Arrow1Lstart"
       orient="auto"
       refY="0"
       refX="0"
       id="Arrow1Lstart-6"
       style="overflow:visible"
       inkscape:isstock="true">
      <path
         id="path6660-2"
         d="M 0,0 5,-5 -12.5,0 5,5 Z"
         style="fill:#000000;fill-opacity:1;fill-rule:evenodd;stroke:#000000;stroke-width:1.00000003pt;stroke-opacity:1"
         transform="matrix(0.8,0,0,0.8,10,0)"
         inkscape:connector-curvature="0" />
    </marker>
    <marker
       inkscape:stockid="Arrow1Lend"
       orient="auto"
       refY="0"
       refX="0"
       id="Arrow1Lend-9"
       style="overflow:visible"
       inkscape:isstock="true">
      <path
         id="path6663-1"
         d="M 0,0 5,-5 -12.5,0 5,5 Z"
         style="fill:#000000;fill-opacity:1;fill-rule:evenodd;stroke:#000000;stroke-width:1.00000003pt;stroke-opacity:1"
         transform="matrix(-0.8,0,0,-0.8,-10,0)"
         inkscape:connector-curvature="0" />
    </marker>
    <marker
       inkscape:stockid="Arrow1Lstart"
       orient="auto"
       refY="0"
       refX="0"
       id="Arrow1Lstart-6-8"
       style="overflow:visible"
       inkscape:isstock="true">
      <path
         id="path6660-2-7"
         d="M 0,0 5,-5 -12.5,0 5,5 Z"
         style="fill:#000000;fill-opacity:1;fill-rule:evenodd;stroke:#000000;stroke-width:1.00000003pt;stroke-opacity:1"
         transform="matrix(0.8,0,0,0.8,10,0)"
         inkscape:connector-curvature="0" />
    </marker>
    <marker
       inkscape:stockid="Arrow1Lend"
       orient="auto"
       refY="0"
       refX="0"
       id="Arrow1Lend-9-9"
       style="overflow:visible"
       inkscape:isstock="true">
      <path
         id="path6663-1-2"
         d="M 0,0 5,-5 -12.5,0 5,5 Z"
         style="fill:#000000;fill-opacity:1;fill-rule:evenodd;stroke:#000000;stroke-width:1.00000003pt;stroke-opacity:1"
         transform="matrix(-0.8,0,0,-0.8,-10,0)"
         inkscape:connector-curvature="0" />
    </marker>
    <marker
       inkscape:isstock="true"
       style="overflow:visible"
       id="marker7857-3-0"
       refX="0"
       refY="0"
       orient="auto"
       inkscape:stockid="Arrow1Lstart">
      <path
         transform="matrix(0.8,0,0,0.8,10,0)"
         style="fill:#000000;fill-opacity:1;fill-rule:evenodd;stroke:#000000;stroke-width:1.00000003pt;stroke-opacity:1"
         d="M 0,0 5,-5 -12.5,0 5,5 Z"
         id="path7855-5-2"
         inkscape:connector-curvature="0" />
    </marker>
    <marker
       inkscape:stockid="Arrow1Lend"
       orient="auto"
       refY="0"
       refX="0"
       id="Arrow1Lend-0-7-5"
       style="overflow:visible"
       inkscape:isstock="true">
      <path
         inkscape:connector-curvature="0"
         id="path6663-8-5-9"
         d="M 0,0 5,-5 -12.5,0 5,5 Z"
         style="fill:#000000;fill-opacity:1;fill-rule:evenodd;stroke:#000000;stroke-width:1.00000003pt;stroke-opacity:1"
         transform="matrix(-0.8,0,0,-0.8,-10,0)" />
    </marker>
    <linearGradient
       id="linearGradient3374-5-7-7-0">
      <stop
         id="stop3376-8-6-4-2"
         style="stop-color:#729fcf;stop-opacity:1"
         offset="0" />
      <stop
         id="stop3378-6-7-4-9"
         style="stop-color:#729fcf;stop-opacity:0"
         offset="1" />
    </linearGradient>
    <linearGradient
       id="linearGradient3362-8-6-0-9">
      <stop
         id="stop3364-4-5-78-9"
         style="stop-color:#3465a4;stop-opacity:1"
         offset="0" />
      <stop
         id="stop3366-7-6-6-4"
         style="stop-color:#3465a4;stop-opacity:0"
         offset="1" />
    </linearGradient>
    <linearGradient
       x1="24.837126"
       y1="44.528019"
       x2="21.036427"
       y2="21.041553"
       id="linearGradient3991-3-88-5-3"
       xlink:href="#linearGradient7101-4-9-4-1"
       gradientUnits="userSpaceOnUse" />
    <linearGradient
       id="linearGradient7101-4-9-4-1">
      <stop
         id="stop7103-0-4-31-0"
         style="stop-color:#babdb6;stop-opacity:1"
         offset="0" />
      <stop
         id="stop7105-6-8-4-3"
         style="stop-color:#ffffff;stop-opacity:1"
         offset="1" />
    </linearGradient>
    <linearGradient
       x1="39.06765"
       y1="28.5"
       x2="39.421204"
       y2="10.934953"
       id="linearGradient3993-1-9-7-2"
       xlink:href="#linearGradient6979-9-2-2-8"
       gradientUnits="userSpaceOnUse" />
    <linearGradient
       id="linearGradient6979-9-2-2-8">
      <stop
         id="stop6981-9-9-0-8"
         style="stop-color:#888a85;stop-opacity:1"
         offset="0" />
      <stop
         id="stop6983-0-3-6-6"
         style="stop-color:#555753;stop-opacity:1"
         offset="1" />
    </linearGradient>
    <radialGradient
       cx="10.28125"
       cy="7.8249326"
       r="4.5250292"
       fx="10.28125"
       fy="7.8249326"
       id="radialGradient3995-7-4-0-2"
       xlink:href="#linearGradient3374-5-7-7-0"
       gradientUnits="userSpaceOnUse"
       gradientTransform="matrix(2.2651111,0,0,2.2923498,16.215361,52.593597)" />
    <radialGradient
       cx="10.28125"
       cy="9.8424416"
       r="4.5250292"
       fx="10.28125"
       fy="9.8424416"
       id="radialGradient3997-3-3-4-7"
       xlink:href="#linearGradient3362-8-6-0-9"
       gradientUnits="userSpaceOnUse"
       gradientTransform="matrix(15.1803,0,0,5.0647752,-116.56897,28.614297)" />
    <radialGradient
       cx="8.9057236"
       cy="1.7286602"
       r="1.9952321"
       fx="8.9057236"
       fy="1.7286602"
       id="radialGradient3999-1-4-6-0"
       xlink:href="#linearGradient7131-6-1-5-7"
       gradientUnits="userSpaceOnUse"
       gradientTransform="matrix(0.7375073,0,0,0.7201806,2.4345312,0.6617371)" />
    <linearGradient
       id="linearGradient7131-6-1-5-7">
      <stop
         id="stop7133-4-5-2-6"
         style="stop-color:#ffffff;stop-opacity:1"
         offset="0" />
      <stop
         id="stop7135-6-9-5-0"
         style="stop-color:#d3d7cf;stop-opacity:1"
         offset="1" />
    </linearGradient>
    <radialGradient
       cx="8.3046875"
       cy="1.1256332"
       r="2.0507698"
       fx="8.3046875"
       fy="1.1256332"
       id="radialGradient4001-9-6-9-6"
       xlink:href="#linearGradient7153-0-1-9-75"
       gradientUnits="userSpaceOnUse"
       gradientTransform="matrix(5.2943491,0,0,5.2881329,-7.02204,58.291497)" />
    <linearGradient
       id="linearGradient7153-0-1-9-75">
      <stop
         id="stop7155-8-7-3-9"
         style="stop-color:#ffffff;stop-opacity:1"
         offset="0" />
      <stop
         id="stop7157-5-7-7-7"
         style="stop-color:#ffffff;stop-opacity:0"
         offset="1" />
    </linearGradient>
  </defs>
  <sodipodi:namedview
     id="base"
     pagecolor="#ffffff"
     bordercolor="#666666"
     borderopacity="1.0"
     inkscape:pageopacity="0.0"
     inkscape:pageshadow="2"
     inkscape:zoom="1.7773744"
     inkscape:cx="74.382155"
     inkscape:cy="79.891473"
     inkscape:document-units="mm"
     inkscape:current-layer="layer4"
     showgrid="false"
     inkscape:window-width="1916"
     inkscape:window-height="1041"
     inkscape:window-x="1920"
     inkscape:window-y="37"
     inkscape:window-maximized="0"
     inkscape:snap-intersection-paths="false"
     inkscape:object-paths="false"
     inkscape:snap-smooth-nodes="false"
     inkscape:object-nodes="true"
     inkscape:snap-nodes="false" />
  <metadata
     id="metadata2383">
    <rdf:RDF>
      <cc:Work
         rdf:about="">
        <dc:format>image/svg+xml</dc:format>
        <dc:type
           rdf:resource="http://purl.org/dc/dcmitype/StillImage" />
        <dc:title />
      </cc:Work>
    </rdf:RDF>
  </metadata>
  <g
     inkscape:label="dimensions"
     inkscape:groupmode="layer"
     id="layer1"
     style="display:none"
     transform="translate(-7.9778871,-6.9118391)">
    <g
       inkscape:groupmode="layer"
       id="layer9"
       inkscape:label="dimension_0FF"
       style="display:inline">
      <path
         style="fill:none;fill-rule:evenodd;stroke:#000000;stroke-width:0.26499999;stroke-linecap:butt;stroke-linejoin:miter;stroke-miterlimit:4;stroke-dasharray:none;stroke-opacity:1;marker-start:url(#Arrow1Lstart-3);marker-end:url(#Arrow1Lend-0)"
         d="M 8.1029005,1.8250748 H 93.702904"
         id="path6658"
         inkscape:connector-curvature="0" />
      <text
         xml:space="preserve"
         style="font-style:normal;font-variant:normal;font-weight:normal;font-stretch:normal;font-size:3.52777767px;line-height:6.61458349px;font-family:'DejaVu Sans';-inkscape-font-specification:'DejaVu Sans';text-align:center;letter-spacing:0px;word-spacing:0px;text-anchor:middle;fill:#000000;fill-opacity:1;stroke:none;stroke-width:0.26458332px;stroke-linecap:butt;stroke-linejoin:miter;stroke-opacity:1"
         x="50.901188"
         y="-0.60394531"
         id="text7396"><tspan
           sodipodi:role="line"
           id="tspan7394"
           x="50.901188"
           y="-0.60394531"
           style="text-align:center;text-anchor:middle;stroke-width:0.26458332px">85.60</tspan></text>
      <text
         xml:space="preserve"
         style="font-style:normal;font-variant:normal;font-weight:normal;font-stretch:normal;font-size:3.52777767px;line-height:6.61458349px;font-family:'DejaVu Sans';-inkscape-font-specification:'DejaVu Sans';text-align:center;letter-spacing:0px;word-spacing:0px;text-anchor:middle;fill:#000000;fill-opacity:1;stroke:none;stroke-width:0.26458332px;stroke-linecap:butt;stroke-linejoin:miter;stroke-opacity:1"
         x="106.33154"
         y="35.310986"
         id="text7400"><tspan
           sodipodi:role="line"
           x="106.33154"
           y="35.310986"
           style="text-align:center;text-anchor:middle;stroke-width:0.26458332px"
           id="tspan7402">53.98</tspan></text>
      <text
         xml:space="preserve"
         style="font-style:normal;font-variant:normal;font-weight:normal;font-stretch:normal;font-size:3.52777767px;line-height:6.61458349px;font-family:'DejaVu Sans';-inkscape-font-specification:'DejaVu Sans';text-align:center;letter-spacing:0px;word-spacing:0px;text-anchor:middle;fill:#000000;fill-opacity:1;stroke:none;stroke-width:0.26458332px;stroke-linecap:butt;stroke-linejoin:miter;stroke-opacity:1"
         x="103.33051"
         y="1.0214057"
         id="text7408"><tspan
           sodipodi:role="line"
           id="tspan7406"
           x="103.33051"
           y="1.0214057"
           style="text-align:center;text-anchor:middle;stroke-width:0.26458332px">3.10</tspan></text>
      <path
         style="fill:none;fill-rule:evenodd;stroke:#000000;stroke-width:0.26458332px;stroke-linecap:butt;stroke-linejoin:miter;stroke-opacity:1;marker-start:url(#Arrow1Lstart);marker-end:url(#Arrow1Lend)"
         d="M 98.819424,7.0368348 V 61.016838"
         id="path7829"
         inkscape:connector-curvature="0" />
      <path
         style="fill:none;fill-rule:evenodd;stroke:#000000;stroke-width:0.26458332px;stroke-linecap:butt;stroke-linejoin:miter;stroke-opacity:1;marker-start:url(#marker7857)"
         d="m 93.702904,7.0368348 5.87192,-5.87193"
         id="path7925"
         inkscape:connector-curvature="0" />
    </g>
  </g>
  <g
     inkscape:groupmode="layer"
     id="layer23"
     inkscape:label="area"
     style="display:none"
     transform="translate(-12.696926,233.11089)"
     sodipodi:insensitive="true">
    <g
       inkscape:groupmode="layer"
       id="layer25"
       inkscape:label="area_0FF"
       style="display:inline">
      <rect
         style="display:inline;opacity:1;fill:#00ffff;fill-opacity:1;stroke:none;stroke-width:0.26131526;stroke-linecap:round;stroke-linejoin:round;stroke-miterlimit:4;stroke-dasharray:none;stroke-opacity:1"
         id="rect2931-9-6"
         width="88.599998"
         height="56.98"
         x="11.321926"
         y="-234.4859" />
    </g>
  </g>
  <g
     inkscape:groupmode="layer"
     id="layer11"
     inkscape:label="outline"
     style="display:inline"
     transform="translate(-7.9778871,-6.9118391)">
    <g
       inkscape:groupmode="layer"
       id="layer13"
       inkscape:label="outline_0FF"
       transform="translate(-4.719039,240.02274)"
       style="display:inline">
      <rect
         style="display:inline;opacity:1;fill:none;fill-opacity:1;stroke:#ff00ff;stroke-width:0.25;stroke-linecap:round;stroke-linejoin:round;stroke-miterlimit:4;stroke-dasharray:none;stroke-opacity:1"
         id="rect2931-9"
         width="85.599998"
         height="53.980003"
         x="12.821926"
         y="-232.9859"
         rx="3.1000006"
         ry="3.1000006" />
    </g>
  </g>
  <g
     inkscape:groupmode="layer"
     id="layer4"
     inkscape:label="logo"
     style="display:inline"
     transform="translate(-12.696926,233.11089)">
    <g
       id="g5739"
       inkscape:tile-cx="51.027898"
       inkscape:tile-cy="34.703789"
       inkscape:tile-w="68.745159"
       inkscape:tile-h="46.909959"
       inkscape:tile-x0="16.655319"
       inkscape:tile-y0="11.223817"
       transform="translate(-1.8629086e-6)">
      <path
         inkscape:connector-curvature="0"
         id="path9155"
         d="m 47.010704,-217.38796 -1.52834,2.78844 v 4.42795 a 0.24702456,0.24702456 0 0 0 0,0.11475 v 12.85448 l -0.20296,0.22336 H 41.09163 l -0.83429,-1.21624 a 0.14803881,0.14803881 0 0 0 -0.14075,-0.0653 0.14803881,0.14803881 0 0 0 -0.13003,0.12494 l -0.0398,-0.0597 a 0.14803881,0.14803881 0 0 0 -0.12494,-0.0673 0.14803881,0.14803881 0 0 0 -0.14279,0.11116 l -0.0132,-0.0209 a 0.14803881,0.14803881 0 0 0 -0.12341,-0.0709 0.14803881,0.14803881 0 0 0 -0.15146,0.13922 l -0.051,-0.0796 a 0.1480388,0.1480388 0 0 0 -0.13871,-0.0693 0.1480388,0.1480388 0 0 0 -0.11168,0.22897 l 1.05765,1.6441 h 4.587574 l -0.583904,0.64204 -0.01,11.42966 2.969994,2.54418 h 18.13864 l 2.60945,-2.2127 0.15808,-11.72646 -0.77054,-0.67671 h 3.91035 l 0.99645,-1.5569 a 0.14863778,0.14863778 0 1 0 -0.25034,-0.16013 l -0.007,0.0102 a 0.14807551,0.14807551 0 0 0 -0.25141,-0.008 l -0.024,0.0357 a 0.14835267,0.14835267 0 0 0 -0.26926,-0.0648 l -0.0337,0.049 a 0.14843744,0.14843744 0 0 0 -0.26518,-0.053 l -0.82868,1.14894 h -3.6605 l -0.23459,-0.20604 -0.0158,-17.55476 -1.54364,-2.6482 h -0.16982 z m 0.67875,1.15046 h 16.29006 l 1.21268,2.08368 0.0133,17.17484 h -18.75927 l 0.0367,-0.0403 v -0.88478 h 5.72019 a 0.24682016,0.24682016 0 1 0 0,-0.49364 h -5.72019 v -0.90925 c 0.0166,0 0.0249,-4e-5 0.0423,0 0.24757,5.4e-4 0.57636,7.2e-4 0.90568,0 0.65864,-9.8e-4 1.31671,-0.004 1.31671,-0.004 a 0.24673135,0.24673135 0 1 0 -0.002,-0.49313 c 0,0 -0.65879,0.002 -1.31671,0.004 -0.32896,7.2e-4 -0.65751,5.4e-4 -0.90364,0 -0.0175,-3e-5 -0.0256,0 -0.0423,0 v -0.75167 h 2.06583 a 0.24682,0.24682 0 1 0 0,-0.49364 h -0.20245 a 0.24673134,0.24673134 0 0 0 -0.15962,-0.0556 h -1.70373 v -1.11993 h 5.56261 a 0.24673135,0.24673135 0 0 0 0.0867,-0.47936 0.24673134,0.24673134 0 0 0 -0.21979,-0.128 h -5.42951 v -0.80369 h 2.05257 a 0.24682,0.24682 0 1 0 0,-0.49364 h -0.0393 a 0.24673135,0.24673135 0 0 0 -0.22489,-0.13871 h -1.78838 v -1.18974 c 0.0884,4.9e-4 0.16255,9.8e-4 0.27741,9.8e-4 0.3847,7.7e-4 0.89883,-9.7e-4 1.41105,-0.002 1.02445,-0.002 2.04697,-0.006 2.04697,-0.006 a 0.24673135,0.24673135 0 0 0 0.0296,-0.4916 0.24673135,0.24673135 0 0 0 -0.24937,-0.22132 c 0,0 -1.05605,0.006 -2.11071,0.008 -0.51119,9.6e-4 -1.01432,7.1e-4 -1.40493,0 v -1.3519 h 1.89092 a 0.24673135,0.24673135 0 1 0 0,-0.49312 h -0.005 a 0.24673135,0.24673135 0 0 0 -0.24934,-0.26413 h -1.63645 v -1.20095 h 3.91443 a 0.24673135,0.24673135 0 1 0 0,-0.49312 h -0.026 a 0.24673134,0.24673134 0 0 0 -0.20347,-0.39114 h -3.68495 v -3.66812 z m 1.42023,1.41462 a 0.14840887,0.14840887 0 1 0 0,0.29679 h 0.004 a 0.14860911,0.14860911 0 0 0 0.0984,0.2662 h 0.025 a 0.14803881,0.14803881 0 0 0 0.0887,0.26365 h 0.0464 a 0.14840887,0.14840887 0 0 0 0.0903,0.2662 h 12.93455 a 0.14840887,0.14840887 0 0 0 0.0903,-0.2662 h 0.0122 a 0.14803881,0.14803881 0 0 0 0.10148,-0.26569 0.14840887,0.14840887 0 0 0 0.0673,-0.26416 h 0.024 a 0.14840887,0.14840887 0 1 0 0,-0.29679 z m -3.20712,18.4431 h 19.96328 l 0.95464,0.83837 -0.14227,10.92277 -2.10868,1.78842 h -16.9224 l -2.44983,-2.10256 0.008,-10.67798 z m 3.53503,1.74661 c -0.94696,0 -1.8092,0.35656 -2.45902,0.93678 -0.9238,0.66959 -1.52681,1.73642 -1.52681,2.94297 0,2.03001 1.69918,3.67373 3.77929,3.67373 1.85556,0 3.40329,-1.30934 3.71657,-3.03272 0.0881,-0.30608 0.1382,-0.62772 0.1382,-0.96127 0,-1.96713 -1.63938,-3.55949 -3.64823,-3.55949 z m 12.98656,0 c -1.7144,0 -3.15513,1.17062 -3.52483,2.73999 v -1.10966 c 0,-0.15871 -0.13451,-0.29476 -0.29322,-0.29476 h -5.12099 c -0.15871,0 -0.29475,0.13605 -0.29475,0.29476 v 0.006 c -0.0545,0.0549 -0.0887,0.12959 -0.0887,0.20857 v 4.61409 c 0,0.15592 0.13147,0.29679 0.29475,0.29679 h 5.20003 c 0.16328,0 0.29476,-0.14087 0.29476,-0.29679 v -0.38298 c 0.002,-0.0134 0.008,-0.0254 0.008,-0.0393 v -1.71447 c 0.0707,0.30013 0.17965,0.58561 0.32331,0.85111 0.54792,1.35336 1.90291,2.31265 3.483,2.31265 2.06099,0 3.74513,-1.62914 3.74513,-3.64057 0,-1.34906 -0.75954,-2.52257 -1.88021,-3.15103 -0.60181,-0.43426 -1.34321,-0.69405 -2.14641,-0.69405 z m -13.1931,0.69966 c 1.8214,0 3.28463,1.42492 3.28463,3.18009 0,0.1852 -0.0202,0.36551 -0.0515,0.54208 -0.38221,1.27322 -1.58706,2.20454 -3.02659,2.20454 -1.74911,0 -3.1551,-1.37349 -3.1551,-3.06688 0,-0.8858 0.38678,-1.68143 1.0041,-2.24126 0.54411,-0.38735 1.21443,-0.61857 1.94447,-0.61857 z m 13.47459,0 c 0.58225,0 1.12661,0.14828 1.59821,0.40592 0.75695,0.55436 1.24684,1.43311 1.24684,2.42536 0,0.41936 -0.0871,0.81867 -0.24478,1.18208 0.10783,-0.3001 0.16931,-0.62198 0.16931,-0.95872 0,-1.14107 -0.67611,-2.12471 -1.64767,-2.57834 -0.42133,-0.25783 -0.91461,-0.40899 -1.44369,-0.40899 -0.24334,0 -0.47816,0.0348 -0.70323,0.0938 0.32224,-0.1032 0.66611,-0.16115 1.02501,-0.16115 z m -13.1987,0.0673 c -0.74294,0 -1.41691,0.29779 -1.91132,0.77921 -0.67925,0.4997 -1.12241,1.3021 -1.12241,2.20811 0,1.51232 1.23023,2.74255 2.74254,2.74255 0.74166,0 1.41409,-0.29722 1.90826,-0.77717 0.6808,-0.49955 1.12548,-1.30294 1.12548,-2.21015 0,-1.51232 -1.23024,-2.74255 -2.74255,-2.74255 z m 13.1217,0.53596 c 0.36333,0 0.70651,0.0807 1.01634,0.22183 0.673,0.42046 1.12089,1.16548 1.12089,2.01943 0,1.31811 -1.06391,2.38252 -2.38201,2.38252 -0.72475,0 -1.37128,-0.32298 -1.8078,-0.83174 -0.25174,-0.38518 -0.39929,-0.84511 -0.39929,-1.34068 0,-1.35633 1.09553,-2.45136 2.45187,-2.45136 z m -13.41289,0.10403 c 1.29899,0 2.34785,1.04835 2.34785,2.34733 0,0.64924 -0.2627,1.23645 -0.68692,1.66093 -0.38544,0.27724 -0.85743,0.44213 -1.36974,0.44213 -1.29899,0 -2.34784,-1.04886 -2.34784,-2.34784 0,-0.64871 0.26176,-1.235 0.68538,-1.6594 0.38573,-0.27792 0.85827,-0.44315 1.37127,-0.44315 z m 10.89217,0.55024 c -0.31502,0.45037 -0.50129,0.99691 -0.50129,1.58699 0,0.67947 0.2461,1.30217 0.65275,1.78536 0.42184,0.63233 1.0899,1.08518 1.86593,1.2244 -1.06221,-0.0974 -1.96621,-0.70739 -2.44983,-1.5727 -0.14107,-0.35293 -0.22132,-0.73516 -0.22132,-1.13619 0,-0.70928 0.24492,-1.36156 0.65376,-1.88786 z m -6.42443,0.0836 h 0.31107 l -0.0699,3.7951 h -0.24121 z m 0.8042,0 h 0.3687 l -0.0964,3.7951 h -0.34167 z m 0.86233,0 h 0.46151 l -0.0128,3.7951 h -0.54565 z m 0.95515,0 h 0.45234 l -0.0199,3.7951 h -0.44519 z m 0.94597,0 h 0.33606 l -0.0408,3.7951 h -0.31566 z m 0.83021,0 h 0.31669 v 3.7951 h -0.35799 z m 7.74421,2.68696 c -0.31319,1.04089 -1.16524,1.85707 -2.24891,2.14743 1.04363,-0.34317 1.87451,-1.13775 2.24891,-2.14743 z m -19.14633,1.15608 c 0.35355,0.3988 0.7949,0.72053 1.2958,0.93526 -0.5097,-0.20378 -0.95385,-0.52753 -1.2958,-0.93526 z m 12.43785,1.38045 c -0.79007,0 -1.43604,0.64546 -1.43604,1.43553 0,0.15734 0.0267,0.30886 0.0739,0.4508 -5.5e-4,0.0162 -0.002,0.0321 -0.002,0.0484 0,0.79008 0.64545,1.43604 1.43553,1.43604 0.79007,0 1.43603,-0.64596 1.43603,-1.43604 0,-0.15734 -0.0267,-0.30835 -0.0739,-0.45029 5.6e-4,-0.0164 0.002,-0.0324 0.002,-0.049 0,-0.79007 -0.64545,-1.43553 -1.43552,-1.43553 z m -6.05625,0.0806 c -0.74345,0 -1.35882,0.57206 -1.4289,1.29784 -0.0726,0.17137 -0.1127,0.35924 -0.1127,0.55636 0,0.79008 0.64546,1.43604 1.43553,1.43604 0.74328,0 1.35909,-0.57178 1.42941,-1.29733 0.0726,-0.17137 0.1127,-0.35975 0.1127,-0.55687 0,-0.79007 -0.64597,-1.43603 -1.43604,-1.43604 z m 2.90879,0 c -0.79007,0 -1.43604,0.64597 -1.43604,1.43604 0,0.0995 0.0101,0.19676 0.0296,0.29067 -0.004,0.0421 -0.007,0.0845 -0.007,0.12749 0,0.79008 0.64597,1.43604 1.43604,1.43604 0.79007,0 1.43604,-0.64596 1.43604,-1.43604 0,-0.0988 -0.0103,-0.19536 -0.0296,-0.28863 0.004,-0.0427 0.006,-0.0858 0.006,-0.12953 0,-0.79007 -0.64545,-1.43603 -1.43553,-1.43604 z m 3.14746,0.41256 c 0.0219,0 0.0422,0.005 0.0637,0.007 -0.15453,7.6e-4 -0.30306,0.0265 -0.44264,0.0729 0.11585,-0.0505 0.24369,-0.0796 0.37889,-0.0796 z m -6.16232,0.49924 c 0.52341,0 0.94291,0.41899 0.94291,0.9424 0,0.004 -9.7e-4,0.008 -9.9e-4,0.0117 -0.15574,0.30411 -0.46843,0.51251 -0.83582,0.51251 -0.52341,0 -0.9424,-0.41899 -0.9424,-0.9424 0,-0.004 9.7e-4,-0.008 9.9e-4,-0.0117 0.15579,-0.30392 0.46805,-0.51251 0.83531,-0.51251 z m 3.03781,0 c 0.43348,0 0.79156,0.28929 0.90313,0.68539 -0.076,0.44528 -0.45794,0.78125 -0.92608,0.78125 -0.43394,0 -0.79248,-0.28966 -0.90364,-0.6864 0.0764,-0.4448 0.4588,-0.78024 0.92659,-0.78024 z m 3.19539,0 c 0.38569,0 0.71333,0.22872 0.85979,0.5579 -0.0565,0.46803 -0.44652,0.82817 -0.93067,0.82817 -0.38567,0 -0.71333,-0.22875 -0.85979,-0.5579 0.0564,-0.46813 0.44645,-0.82817 0.93067,-0.82817 z m 0.3789,1.80576 c -0.11585,0.0505 -0.2437,0.0796 -0.3789,0.0796 -0.0219,0 -0.0422,-0.005 -0.0637,-0.007 0.15453,-7.7e-4 0.30306,-0.0265 0.44264,-0.0729 z"
         style="color:#000000;font-style:normal;font-variant:normal;font-weight:normal;font-stretch:normal;font-size:medium;line-height:normal;font-family:sans-serif;font-variant-ligatures:normal;font-variant-position:normal;font-variant-caps:normal;font-variant-numeric:normal;font-variant-alternates:normal;font-feature-settings:normal;text-indent:0;text-align:start;text-decoration:none;text-decoration-line:none;text-decoration-style:solid;text-decoration-color:#000000;letter-spacing:normal;word-spacing:normal;text-transform:none;writing-mode:lr-tb;direction:ltr;text-orientation:mixed;dominant-baseline:auto;baseline-shift:baseline;text-anchor:start;white-space:normal;shape-padding:0;clip-rule:nonzero;display:inline;overflow:visible;visibility:visible;opacity:1;isolation:auto;mix-blend-mode:normal;color-interpolation:sRGB;color-interpolation-filters:linearRGB;solid-color:#000000;solid-opacity:1;vector-effect:none;fill:#000000;fill-opacity:1;fill-rule:nonzero;stroke:none;stroke-width:0.49341336;stroke-linecap:round;stroke-linejoin:miter;stroke-miterlimit:4;stroke-dasharray:none;stroke-dashoffset:0;stroke-opacity:1;color-rendering:auto;image-rendering:auto;shape-rendering:auto;text-rendering:auto;enable-background:accumulate" />
      <g
         style="fill:#000000;stroke:#000000;stroke-width:0.07527829"
         transform="matrix(1.3284042,0,0,1.3284042,68.765914,-243.15913)"
         id="g1955">
        <path
           inkscape:connector-curvature="0"
           style="display:inline;opacity:1;fill:#000000;stroke:#000000;stroke-width:0.07527829;stroke-linecap:butt;stroke-linejoin:miter;stroke-opacity:1"
           d="m -29.754173,15.535161 1.507494,-4.593098 h 0.576105 l 1.593896,4.593098 h -0.480097 l -1.401861,-4.032355 -1.286634,4.032355 z"
           id="path1257" />
        <path
           inkscape:connector-curvature="0"
           style="display:inline;opacity:1;fill:#000000;stroke:#000000;stroke-width:0.07527829;stroke-linecap:butt;stroke-linejoin:miter;stroke-opacity:1"
           d="m -16.609294,10.942063 v 2.106557 h 2.033937 v -2.106557 h 0.433718 v 4.593098 h -0.433718 v -2.256099 h -2.033937 v 2.256099 h -0.446495 v -4.593098 z"
           id="path1255" />
        <path
           inkscape:connector-curvature="0"
           style="display:inline;opacity:1;fill:#000000;stroke:#000000;stroke-width:0.07527829;stroke-linecap:butt;stroke-linejoin:miter;stroke-opacity:1"
           d="m 13.057354,15.535161 v -4.593098 h 0.434519 l 2.002914,3.768175 v -3.768175 h 0.448108 v 4.593098 h -0.448108 l -2.002914,-3.744409 v 3.744409 z"
           id="path1253" />
        <path
           inkscape:connector-curvature="0"
           style="display:inline;opacity:1;fill:#000000;stroke:#000000;stroke-width:0.07527829;stroke-linecap:butt;stroke-linejoin:miter;stroke-opacity:1"
           d="M 9.9613492,10.942063 H 7.0825909 v 4.593098 H 9.9613492 V 15.294136 H 7.5035482 V 13.304809 H 9.6829774 V 13.067178 H 7.5035482 v -1.880695 h 2.457801 z"
           id="path1251" />
        <path
           inkscape:connector-curvature="0"
           style="display:inline;opacity:1;fill:#000000;stroke:#000000;stroke-width:0.07527829;stroke-linecap:butt;stroke-linejoin:miter;stroke-opacity:1"
           d="m -11.08612,10.941996 v 4.593098 h 1.853537 c 0,0 1.3035846,-0.09171 1.3035846,-1.217019 0,-1.12531 -0.7875819,-1.217016 -0.7875819,-1.217016 0,0 0.5771098,-0.02973 0.5771098,-1.079529 -4.9e-6,-1.04979 -1.1338501,-1.079534 -1.1338501,-1.079534 z m 0.468479,0.291952 h 1.3876035 c 0,0 0.5516475,-0.02664 0.5516475,0.902153 0,0.928787 -0.5516475,0.903002 -0.5516475,0.903002 h -1.3876035 z m 0,2.07419 h 1.4071224 c 0,0 0.7629719,0.08005 0.7629719,0.974294 0,0.894259 -0.7629719,0.974295 -0.7629719,0.974295 h -1.4071224 z"
           id="path1202" />
        <path
           inkscape:connector-curvature="0"
           style="opacity:1;fill:#000000;fill-opacity:1;stroke:#000000;stroke-width:0.07527829;stroke-linecap:round;stroke-linejoin:round;stroke-miterlimit:4;stroke-dasharray:none"
           d="m -35.732012,10.941996 v 4.584612 h 1.215319 c 0,0 1.722296,0.06883 1.751692,-2.28806 0.02938,-2.356891 -1.751692,-2.296552 -1.751692,-2.296552 z m 0.461687,0.271581 h 0.76721 c 0,0 1.267464,0.118443 1.228899,2.118325 -0.03859,1.999885 -1.228899,1.941797 -1.228899,1.941797 h -0.76721 z"
           id="rect1261" />
        <path
           inkscape:connector-curvature="0"
           style="opacity:1;fill:#000000;fill-opacity:1;stroke:#000000;stroke-width:0.07527829;stroke-linecap:round;stroke-linejoin:round;stroke-miterlimit:4;stroke-dasharray:none"
           d="m -3.9647759,10.941996 c -0.5277436,0 -0.9530776,0.218812 -0.9530776,0.475265 v 3.646813 c 0,0.256454 0.425334,0.462534 0.9530776,0.462534 h 0.9989014 c 0.5277436,0 0.9522302,-0.20608 0.9522302,-0.462534 v -3.646813 c 0,-0.256453 -0.4244866,-0.475265 -0.9522302,-0.475265 z m -0.07808,0.292798 h 1.1542148 c 0.2275669,0 0.410765,0.113549 0.410765,0.254607 v 3.496593 c 0,0.141058 -0.1831981,0.254607 -0.410765,0.254607 h -1.1542148 c -0.2275668,0 -0.4107634,-0.113549 -0.4107634,-0.254607 v -3.496593 c 0,-0.141058 0.1831966,-0.254607 0.4107634,-0.254607 z"
           id="path1269" />
        <path
           inkscape:connector-curvature="0"
           style="opacity:1;fill:#000000;fill-opacity:1;stroke:#000000;stroke-width:0.07527829;stroke-linecap:round;stroke-linejoin:round;stroke-miterlimit:4;stroke-dasharray:none"
           d="m -22.041831,10.941996 c -0.527739,0 -0.953073,0.218812 -0.953073,0.475265 v 3.646813 c 0,0.256454 0.425334,0.462534 0.953073,0.462534 h 0.998906 c 0.527744,0 0.95223,-0.20608 0.95223,-0.462534 v -0.987873 h -0.464234 v 0.909793 c 0,0.141058 -0.183204,0.254607 -0.410763,0.254607 h -1.154215 c -0.227576,0 -0.410768,-0.113549 -0.410768,-0.254607 v -3.496593 c 0,-0.141058 0.183192,-0.254607 0.410768,-0.254607 h 1.154215 c 0.227559,0 0.410763,0.113549 0.410763,0.254607 v 0.915735 h 0.464234 v -0.987875 c 0,-0.256453 -0.424486,-0.475265 -0.95223,-0.475265 z"
           id="path1278" />
        <path
           id="path1286"
           d="m 1.0535183,10.941996 v 4.584612 h 1.2153268 c 0,0 1.7222918,0.06883 1.7516892,-2.28806 0.029397,-2.356891 -1.7516892,-2.296552 -1.7516892,-2.296552 z m 0.4616865,0.271581 H 2.282427 c 0,0 1.2674537,0.118443 1.2288923,2.118325 -0.038594,1.999885 -1.2288923,1.941797 -1.2288923,1.941797 H 1.5152048 Z"
           style="opacity:1;fill:#000000;fill-opacity:1;stroke:#000000;stroke-width:0.07527829;stroke-linecap:round;stroke-linejoin:round;stroke-miterlimit:4;stroke-dasharray:none"
           inkscape:connector-curvature="0" />
      </g>
    </g>
  </g>
  <style
     id="style38908"
     type="text/css">
	.st0{clip-path:url(#SVGID_4_);fill:url(#SVGID_5_);}
</style>
</svg>
