<?xml version="1.0" encoding="UTF-8" standalone="no"?>
<!-- Created with Inkscape (http://www.inkscape.org/) -->

<svg
   xmlns:dc="http://purl.org/dc/elements/1.1/"
   xmlns:cc="http://creativecommons.org/ns#"
   xmlns:rdf="http://www.w3.org/1999/02/22-rdf-syntax-ns#"
   xmlns:svg="http://www.w3.org/2000/svg"
   xmlns="http://www.w3.org/2000/svg"
   xmlns:sodipodi="http://sodipodi.sourceforge.net/DTD/sodipodi-0.dtd"
   xmlns:inkscape="http://www.inkscape.org/namespaces/inkscape"
   width="31.464743mm"
   height="2.7968571mm"
   viewBox="0 0 31.464743 2.7968571"
   version="1.1"
   id="svg6891"
   inkscape:version="0.92.4 5da689c313, 2019-01-14"
   sodipodi:docname="title.svg">
  <defs
     id="defs6885" />
  <sodipodi:namedview
     id="base"
     pagecolor="#000000"
     bordercolor="#666666"
     borderopacity="1.0"
     inkscape:pageopacity="0"
     inkscape:pageshadow="2"
     inkscape:zoom="7.9195959"
     inkscape:cx="55.821782"
     inkscape:cy="7.4856327"
     inkscape:document-units="mm"
     inkscape:current-layer="layer1"
     showgrid="false"
     inkscape:window-width="1920"
     inkscape:window-height="1080"
     inkscape:window-x="0"
     inkscape:window-y="0"
     inkscape:window-maximized="0" />
  <metadata
     id="metadata6888">
    <rdf:RDF>
      <cc:Work
         rdf:about="">
        <dc:format>image/svg+xml</dc:format>
        <dc:type
           rdf:resource="http://purl.org/dc/dcmitype/StillImage" />
        <dc:title></dc:title>
      </cc:Work>
    </rdf:RDF>
  </metadata>
  <g
     inkscape:label="Layer 1"
     inkscape:groupmode="layer"
     id="layer1"
     transform="translate(-73.470008,-151.97062)">
    <path
       inkscape:connector-curvature="0"
       style="display:inline;opacity:1;fill:#00ff00;stroke:none;stroke-width:0.26458332px;stroke-linecap:butt;stroke-linejoin:miter;stroke-opacity:1"
       d="m 77.109902,154.76748 0.91791,-2.79673 h 0.35079 l 0.97052,2.79673 h -0.29233 l -0.85359,-2.4553 -0.78343,2.4553 z"
       id="path1257" />
    <path
       inkscape:connector-curvature="0"
       style="display:inline;opacity:1;fill:#00ff00;stroke:none;stroke-width:0.26458332px;stroke-linecap:butt;stroke-linejoin:miter;stroke-opacity:1"
       d="m 85.113792,151.97075 v 1.28268 h 1.23846 v -1.28268 h 0.26409 v 2.79673 h -0.26409 v -1.37374 h -1.23846 v 1.37374 h -0.27187 v -2.79673 z"
       id="path1255" />
    <path
       inkscape:connector-curvature="0"
       style="display:inline;opacity:1;fill:#00ff00;stroke:none;stroke-width:0.26458332px;stroke-linecap:butt;stroke-linejoin:miter;stroke-opacity:1"
       d="m 103.17775,154.76748 v -2.79673 h 0.26458 l 1.21957,2.29443 v -2.29443 h 0.27285 v 2.79673 h -0.27285 l -1.21957,-2.27997 v 2.27997 z"
       id="path1253" />
    <path
       inkscape:connector-curvature="0"
       style="display:inline;opacity:1;fill:#00ff00;stroke:none;stroke-width:0.26458332px;stroke-linecap:butt;stroke-linejoin:miter;stroke-opacity:1"
       d="m 101.2926,151.97075 h -1.752868 v 2.79673 h 1.752868 v -0.14676 h -1.496548 v -1.2113 h 1.327048 v -0.14469 h -1.327048 v -1.14516 h 1.496548 z"
       id="path1251" />
    <path
       inkscape:connector-curvature="0"
       style="display:inline;opacity:1;fill:#00ff00;stroke:none;stroke-width:0.26458332px;stroke-linecap:butt;stroke-linejoin:miter;stroke-opacity:1"
       d="m 88.476841,151.97071 v 2.79672 h 1.128615 c 0,0 0.79375,-0.0558 0.79375,-0.74103 0,-0.6852 -0.479557,-0.74104 -0.479557,-0.74104 0,0 0.351401,-0.0181 0.351401,-0.65733 -3e-6,-0.63921 -0.690399,-0.65732 -0.690399,-0.65732 z m 0.285256,0.17777 h 0.844909 c 0,0 0.335897,-0.0162 0.335897,0.54932 0,0.56553 -0.335897,0.54983 -0.335897,0.54983 h -0.844909 z m 0,1.26297 h 0.856794 c 0,0 0.464572,0.0487 0.464572,0.59324 0,0.54451 -0.464572,0.59325 -0.464572,0.59325 h -0.856794 z"
       id="path1202" />
    <path
       inkscape:connector-curvature="0"
       style="opacity:1;fill:#00ff00;fill-opacity:1;stroke:none;stroke-width:0.69999999;stroke-linecap:round;stroke-linejoin:round;stroke-miterlimit:4;stroke-dasharray:none"
       d="m 73.470008,151.97071 v 2.79156 h 0.740006 c 0,0 1.048702,0.0419 1.066601,-1.3932 0.01789,-1.4351 -1.066601,-1.39836 -1.066601,-1.39836 z m 0.28112,0.16536 h 0.467154 c 0,0 0.771755,0.0721 0.748273,1.28985 -0.02349,1.21772 -0.748273,1.18235 -0.748273,1.18235 h -0.467154 z"
       id="rect1261" />
    <path
       inkscape:connector-curvature="0"
       style="opacity:1;fill:#00ff00;fill-opacity:1;stroke:none;stroke-width:0.69999999;stroke-linecap:round;stroke-linejoin:round;stroke-miterlimit:4;stroke-dasharray:none"
       d="m 92.813013,151.97071 c -0.321342,0 -0.580327,0.13323 -0.580327,0.28939 v 2.22053 c 0,0.15616 0.258985,0.28164 0.580327,0.28164 h 0.608229 c 0.321342,0 0.579811,-0.12548 0.579811,-0.28164 v -2.22053 c 0,-0.15616 -0.258469,-0.28939 -0.579811,-0.28939 z m -0.04754,0.17828 h 0.702799 c 0.138565,0 0.250114,0.0691 0.250114,0.15503 v 2.12907 c 0,0.0859 -0.111549,0.15503 -0.250114,0.15503 H 92.76547 c -0.138565,0 -0.250113,-0.0691 -0.250113,-0.15503 v -2.12907 c 0,-0.0859 0.111548,-0.15503 0.250113,-0.15503 z"
       id="path1269" />
    <path
       inkscape:connector-curvature="0"
       style="opacity:1;fill:#00ff00;fill-opacity:1;stroke:none;stroke-width:0.69999999;stroke-linecap:round;stroke-linejoin:round;stroke-miterlimit:4;stroke-dasharray:none"
       d="m 81.805931,151.97071 c -0.321339,0 -0.580324,0.13323 -0.580324,0.28939 v 2.22053 c 0,0.15616 0.258985,0.28164 0.580324,0.28164 h 0.608232 c 0.321342,0 0.579811,-0.12548 0.579811,-0.28164 v -0.60151 h -0.28267 v 0.55397 c 0,0.0859 -0.111554,0.15503 -0.250114,0.15503 h -0.702799 c -0.13857,0 -0.250116,-0.0691 -0.250116,-0.15503 v -2.12907 c 0,-0.0859 0.111546,-0.15503 0.250116,-0.15503 h 0.702799 c 0.13856,0 0.250114,0.0691 0.250114,0.15503 v 0.55759 h 0.28267 v -0.60151 c 0,-0.15616 -0.258469,-0.28939 -0.579811,-0.28939 z"
       id="path1278" />
    <path
       id="path1286"
       d="m 95.868642,151.97071 v 2.79156 h 0.74001 c 0,0 1.0487,0.0419 1.0666,-1.3932 0.0179,-1.4351 -1.0666,-1.39836 -1.0666,-1.39836 z m 0.28112,0.16536 h 0.46716 c 0,0 0.77175,0.0721 0.74827,1.28985 -0.0235,1.21772 -0.74827,1.18235 -0.74827,1.18235 h -0.46716 z"
       style="opacity:1;fill:#00ff00;fill-opacity:1;stroke:none;stroke-width:0.69999999;stroke-linecap:round;stroke-linejoin:round;stroke-miterlimit:4;stroke-dasharray:none"
       inkscape:connector-curvature="0" />
  </g>
</svg>
